<svg width="936" height="936" viewBox="0 0 936 936" fill="none" xmlns="http://www.w3.org/2000/svg">
<path d="M143.36 7.25904C185.411 3.31951 203.38 45.6003 209.625 46.7474C213.053 47.3767 222.888 42.8092 226.503 41.7366C252.788 33.9334 280.093 37.4613 305.107 47.7593C321.002 27.245 336.881 7.74521 365.294 7.18119C394.67 6.59805 410.425 27.0788 416.279 53.7835C422.023 79.9888 416.195 106.784 398.507 127.286C397.257 128.734 396.48 128.712 394.834 128.611C384.269 120.231 394.301 109.487 397.737 100.694C404.166 83.8518 406.285 64.9991 399.597 47.9493C391.725 27.8842 372.213 18.4622 353.656 31.7743C342.468 39.7998 336.155 48.7897 331.227 61.5326C350.981 80.7869 367.613 98.3486 379.109 123.872C386.56 140.417 390.618 154.443 401.831 168.842C406.921 175.379 414.656 186.624 418.552 193.787C430.951 216.721 435.421 243.111 431.267 268.849C425.647 302.166 400.007 329.193 371.992 346.218C364.714 350.64 353.232 355.518 346.946 360.225C371.335 358.193 405.583 341.117 422.012 323.214C441.222 302.39 451.382 274.793 450.26 246.484C450.184 244.258 450.336 243.755 451.613 242.411C456.342 241.729 483.655 258.267 489.646 260.103C492.261 260.904 502.872 266.155 505.864 267.759C542.6 287.371 575.214 313.877 601.92 345.828C664.938 420.689 686.569 522.12 673.29 616.98C671.851 627.251 674.088 638.908 678.046 648.446C693.871 685.645 738.075 691.378 771.989 704.65C800.691 715.878 839.202 738.636 849.632 769.68C885.155 875.392 722.25 917.664 647.965 926.846C641.513 927.638 602.283 932.216 604.018 921.45C608.293 915.44 637.899 907.637 645.88 904.807C666.225 897.59 687.736 891.178 707.929 883.592C726.195 876.731 745.305 866.539 761.929 856.387C776.983 846.663 795.255 830.112 798.501 811.635C805.065 774.232 752.826 759.693 725.938 754.851C713.569 751.308 699.709 750.893 687.782 748.056C673.428 744.652 643.671 739.098 631.401 731.941C630.781 730.535 630.655 729.803 631.493 728.299C638.842 715.119 644.739 702.19 646.072 686.799L646.144 685.869C640.676 694.425 634.33 704.452 627.416 712.197C610.199 731.466 586.665 745.78 563.309 756.441C559.165 758.334 543.905 762.239 541.732 764.489C535.428 771.013 544.522 787.537 535.652 796.258C532.411 799.207 526.323 801.687 522.12 802.987C489.919 812.941 456.839 820.039 424.422 829.38C405.409 834.862 386.38 840.693 366.944 844.045C363.43 844.651 358.961 843.952 356.266 841.498C351.333 831.478 370.391 816.945 377.07 811.483L376.212 811.121C371.608 811.312 369.734 812.658 366.053 813.766C352.632 816.167 346.358 833.074 337.207 838.246C327.113 843.952 315.221 839.552 321.373 825.468C330.161 805.355 352.27 792.914 372.529 788.956C402.115 783.177 437.182 785.558 464.84 772.965C459.263 767.642 451.189 761.758 445.008 756.098C427.663 739.969 415.572 718.998 410.306 695.903C401.146 656.277 410.366 616.835 437.523 586.002C453.319 568.066 471.577 555.354 495.179 549.912C486.554 549.78 480.91 550.75 472.632 552.682C431.439 562.307 403.766 594.314 392.285 634.217C383.016 667.656 387.094 703.39 403.66 733.88C350.183 725.898 294.088 690.936 260.012 649.607C241.524 626.394 216.068 590.745 206.89 562.439C194.818 525.22 190.388 515.424 167.502 483.549C141.784 447.729 132.262 397.739 136.005 353.723C142.713 356.055 161.958 362.34 168.818 361.179L169.149 360.594C168 359.28 143.867 347.116 139.53 344.426C130.877 338.943 122.773 332.635 115.333 325.592C93.297 304.799 83.2444 282.458 82.0972 253.456C80.5041 213.161 98.7003 188.329 121.384 157.797C126.856 147.858 130.195 136.558 135.059 126.334C141.337 113.137 149.024 99.9358 158.148 88.4569C165.391 79.3443 175.173 70.5891 183.336 62.0042C177.279 48.1927 168.873 31.8686 154.551 27.6771C112.55 15.3868 103.973 73.7417 116.996 101.32C120.13 107.958 123.107 112.257 125.662 117.884L125.989 118.613L119.558 130.176C93.1968 106.588 88.4795 52.8876 110.938 25.2607C120.277 13.7719 129.473 9.87595 143.36 7.25904ZM262.847 332.202C290.352 325.703 297.749 299.824 308.534 277.339C313.149 267.718 322.793 247.116 329.54 239.496C333.873 242.112 337.044 244.344 341.1 247.286C340.843 244.863 340.588 241.69 339.967 239.481C337.252 229.81 330.05 219.229 318.571 221.017C317.211 221.229 316.976 221.217 315.785 222.05C315.514 224.415 317.44 227.386 318.656 229.735C316.405 234.538 315.832 234.589 312.329 238.461C300.242 251.829 283.831 260.484 265.938 253.067C263.971 252.252 263.585 251.801 262.567 250.014C262.822 242.005 280.129 234.67 285.69 224.713C301.921 195.652 277.72 184.41 251.058 187.451C243.249 188.065 233.935 188.785 228.496 195.353C218.03 207.991 224.718 224.065 236.014 233.459C240.277 237.004 255.832 244.088 250.249 251.359C248.221 253.999 241.335 255.661 238.039 255.622C219.593 255.431 209.805 246.977 197.604 234.082C196.187 232.584 195.431 231.776 194.23 230.095C196.284 227.907 199.776 224.821 200.166 222.197C197.884 220.369 196.761 220.86 193.933 221.048C179.738 221.992 175.042 235.496 173.404 247.578C176.827 244.422 179.623 240.845 184.134 240.761C189.401 242.695 191.444 248.929 194.091 253.518C206.006 274.173 213.47 298.145 228.113 317.107C237.335 329.049 248.491 332.579 262.847 332.202ZM421.232 435.532C420.651 437.735 420.168 440.024 419.668 442.247C410.075 470.956 395.208 496.017 367.881 510.958C352.969 519.105 332.206 525.695 318.349 534.443C306.289 542.062 310.844 575.098 298.001 583.093C291.479 587.15 288.89 568.923 286.536 566.469C283.852 568.857 283.53 598.971 271.131 586.833C263.946 579.808 266.344 568.086 266.628 558.831C264.504 563.099 261.99 571.747 258.749 573.396C249.998 570.916 255.251 541.316 257.313 534.977C260.317 525.511 264.672 516.526 270.244 508.3C283.885 488.444 304.062 474.617 304.525 448.125C304.573 445.368 304.29 437.227 301.557 435.98C300.726 440.301 300.622 442.419 298.63 446.318C292.342 458.64 284.819 467.618 275.677 477.823C270.456 483.945 262.374 490.977 258.064 497.561C245.952 516.071 232.772 548.533 239.302 570.467C245.275 590.534 265.561 611.901 288.16 602.877C299.952 598.166 312.05 594.585 318.434 582.414C324.236 571.938 323.4 559.424 328.801 550.367C331.026 546.64 345.904 540.544 350.226 538.75C374.181 528.769 396.681 517.225 409.35 493.378C417.894 477.295 419.924 472.137 421.516 453.158C422.801 447.578 422.205 441.1 421.232 435.532ZM319.731 150.343C305.847 156.541 302.4 168.783 306.88 182.642C307.227 183.714 307.505 183.724 308.415 184.117C316.261 179.086 312.62 175.451 325.665 171.074C336.88 168.818 338.151 172.339 347.912 175.979C344.654 159.071 339.334 148.998 319.731 150.343ZM297.228 339.248C292.385 341.797 287.848 344.907 282.933 347.15C264.572 355.526 242.403 352.473 224.922 343.327C222.911 342.276 220.237 340.793 218.188 339.961C228.698 369.463 276.94 374.184 291.437 348.836C294.234 345.014 295.111 343.51 297.228 339.248ZM184.163 150.455C172.545 156.627 168.78 162.993 166.934 175.833C176.776 171.185 184.74 166.18 194.947 173.78L195.642 174.278C197.993 175.977 205.097 182.676 206.358 183.132C208.627 181.049 209.076 177.034 209.073 174.003C209.055 156.546 200.811 149.4 184.163 150.455Z" fill="#FA5053"/>
<path d="M257.044 296.555C263.511 293.113 279.256 287.972 282.158 298.58C283.401 303.12 276.956 311.539 273.335 313.83C266.596 319.894 257.028 322.217 248.541 318.486C241.14 315.232 229.866 305.403 233.044 296.304C233.812 294.104 237.558 293.389 239.587 292.82C248.282 292.181 249.708 291.961 257.044 296.555Z" fill="#FA5053"/>
<path d="M421.231 435.532C422.204 441.1 422.801 447.578 421.516 453.158C421.146 449.933 421.811 449.477 420.619 445.909L420.675 446.727C419.533 445.077 419.878 444.589 419.668 442.247C420.168 440.024 420.651 437.735 421.231 435.532Z" fill="#FA5053" fill-opacity="0.0117647"/>
<path d="M217.049 621.604C219.368 623.062 240.689 653.447 244.804 658.282C266.267 683.831 292.949 705.824 321.574 722.811C334.791 730.654 357.333 732.35 348.705 753.228C346.097 759.534 331.66 762.668 326.143 763.288C304.809 765.669 197.136 791.674 184.316 784.806C182.688 782.603 183.175 783.441 182.965 780.334C186.234 772.635 189.33 768.941 196.184 763.829C198.581 762.048 200.127 761.764 202.21 759.488L201.917 758.763C198.542 757.424 196.992 759.356 194.024 760.221C179.346 764.502 174.851 777.695 163.193 784.615C159.593 786.752 153.189 785.954 152.051 780.993C149.64 770.498 158.884 760.973 166.305 754.93C187.466 736.934 215.15 737.95 241.202 736.308C247.733 735.892 254.072 735.12 260.559 734.335C269.903 733.491 271.19 735.034 280.721 731.934C277.121 728.543 271.633 724.79 267.593 721.676C261.476 716.993 255.767 711.801 250.529 706.154C231.483 685.823 216.167 649.409 217.049 621.604Z" fill="#FA5053"/>
<path d="M132.608 456.048C138.404 460.573 149.067 489.73 155.864 497.231C157.499 499.038 173.379 521.045 173.498 521.863C175.337 534.535 180.122 547.266 182.717 559.602C182.025 562.208 181.833 563.785 180.187 565.922C173.797 570.111 164.707 559.187 160.169 554.938C162.839 563.58 162.822 565.612 168.734 572.413C172.165 575.81 175.696 578.02 174.037 583.113C168.792 589.624 155.584 586.754 149.204 583.152C112.812 562.624 118.139 510.807 126.216 476.207C127.811 469.373 129.357 462.281 132.608 456.048Z" fill="#FA5053"/>
</svg>
